# xmcd
#
# Track frame offsets: 
#        150
#        20137
#        37117
#        51807
#        67767
#        89317
#        106817
#        125262
#        141615
#        160527
#        181937
#        203192
#        219817
#        240022
#        263135
#
# Disc length: 3787 seconds
#
# Revision: 0
# Processed by: cddbd v1.5.2PL0 Copyright (c) Steve Scherf et al.
# Submitted via: ExactAudioCopy v0.95a5
#
DISCID=c40ec90f
DTITLE=Los Lonely Boys - Sacred (Target Stores Bonus)
DYEAR=2006
DGENRE=Blues
TTITLE0=My Way
TTITLE1=Órale
TTITLE2=Diamonds
TTITLE3=Oye Mamacita
TTITLE4=I Never Met A Woman
TTITLE5=Roses
TTITLE6=Texican Style
TTITLE7=One More Day
TTITLE8=Memories
TTITLE9=My Loneliness
TTITLE10=Outlaws
TTITLE11=Home
TTITLE12=Living My Life
TTITLE13=Man to Beat (Bonus)
TTITLE14=Oye Mamacita (Bonus)
EXTD=
EXTT0=
EXTT1=
EXTT2=
EXTT3=
EXTT4=
EXTT5=
EXTT6=
EXTT7=
EXTT8=
EXTT9=
EXTT10=
EXTT11=
EXTT12=
EXTT13=
EXTT14=
PLAYORDER=
